<svg width="80" height="53" viewBox="0 0 80 53" fill="none" xmlns="http://www.w3.org/2000/svg">
    <path d="M18.3088 17.4791L11.9997 13.8259C11.3896 13.4856 10.6188 13.7042 10.2783 14.3148C9.93798 14.9251 10.1568 15.6959 10.7672 16.0362L15.7434 18.9464L0 28.0597V34.3602L18.2171 45.0724L52.794 24.82L53 18.4538L35.026 7.92749L18.3088 17.4791ZM16.9556 41.3844L2.53077 32.9116V30.908C4.87932 32.2875 15.4524 38.498 16.9556 39.381V41.3844ZM50.2632 23.3977L19.4864 41.3434V39.3677L50.4567 21.1388L50.2632 23.3977ZM18.2095 37.1823L3.78839 28.7117L35.1874 10.7388L49.1797 18.9456L18.2095 37.1823Z" fill="#DC7CB5"/>
    <path d="M8.7168 29.3603C9.05424 29.973 9.82427 30.195 10.4355 29.8579L14.5362 27.5009C15.1483 27.1636 15.371 26.3941 15.0338 25.782C14.6965 25.1699 13.9268 24.9469 13.3149 25.2845L9.21418 27.6416C8.60207 27.9789 8.37937 28.7482 8.7168 29.3603Z" fill="#DC7CB5"/>
    <path d="M21.4437 31.6627C21.7916 32.2683 22.5647 32.478 23.1712 32.1299L40.4958 22.1128C41.1018 21.7646 41.3109 20.9912 40.963 20.3853C40.6149 19.7794 39.8417 19.5704 39.2355 19.9181L21.9109 29.9352C21.3047 30.2835 21.0956 31.0569 21.4437 31.6627Z" fill="#DC7CB5"/>
    <path d="M18.8843 24.9599L23.2728 22.3594C23.8678 21.9931 24.0536 21.2137 23.6873 20.6186C23.3209 20.0234 22.5412 19.8379 21.9465 20.2041L17.558 22.8045C16.9629 23.1708 16.7771 23.9503 17.1434 24.5453C17.5095 25.1404 18.2888 25.3262 18.8843 24.9599Z" fill="#DC7CB5"/>
    <path d="M27.6171 19.8312L31.6481 17.4589C32.2534 17.1097 32.4608 16.3357 32.1114 15.7307C31.7621 15.1249 30.9881 14.918 30.383 15.2673L26.352 17.6396C25.7467 17.9888 25.5393 18.7628 25.8887 19.3679C26.238 19.9731 27.0119 20.1808 27.6171 19.8312Z" fill="#DC7CB5"/>
    <path d="M18.8534 29.7931L23.1334 27.3239C23.7388 26.9749 23.9463 26.2009 23.597 25.5956C23.2478 24.9902 22.4739 24.7822 21.8687 25.132L17.5887 27.6011C16.9833 27.9502 16.7758 28.7241 17.125 29.3295C17.4744 29.9353 18.249 30.1422 18.8534 29.7931Z" fill="#DC7CB5"/>
    <path d="M27.3986 24.8336L31.6395 22.3357C32.2268 21.9573 32.3962 21.1741 32.0177 20.5866C31.6391 19.9991 30.8561 19.8301 30.2686 20.2083L26.0277 22.7062C25.4404 23.0846 25.271 23.8678 25.6495 24.4553C26.0276 25.0423 26.8104 25.2123 27.3986 24.8336Z" fill="#DC7CB5"/>
    <path d="M33.9544 19.4708C33.6221 18.8558 33.8512 18.0882 34.4658 17.756L39.1172 15.0361C39.7324 14.7035 40.4999 14.933 40.8321 15.5474C41.1646 16.1623 40.9355 16.9301 40.3207 17.2623L35.6693 19.9822C35.0565 20.3137 34.2877 20.0871 33.9544 19.4708Z" fill="#DC7CB5"/>
    <path d="M52.2 40.8C51.36 40.84 50.4067 40.8733 49.34 40.9C48.2867 40.9267 47.28 40.94 46.32 40.94V43.68C46.32 43.92 46.44 44.04 46.68 44.04C47.16 44.04 47.6733 44.0333 48.22 44.02C48.78 44.0067 49.3467 43.98 49.92 43.94C50.4933 43.9 51.0667 43.8533 51.64 43.8C52.2133 43.7333 52.76 43.6533 53.28 43.56C53.4267 43.5333 53.5267 43.5467 53.58 43.6C53.6333 43.64 53.6733 43.7133 53.7 43.82L53.94 45.28C53.9667 45.4267 53.9533 45.5267 53.9 45.58C53.8467 45.6333 53.7467 45.68 53.6 45.72C53.04 45.8533 52.38 45.9667 51.62 46.06C50.8733 46.1533 50.1 46.2267 49.3 46.28C48.5 46.3333 47.72 46.3667 46.96 46.38C46.2 46.3933 45.5333 46.3867 44.96 46.36C44.48 46.3467 44.12 46.26 43.88 46.1C43.6533 45.94 43.54 45.58 43.54 45.02V34.86C43.54 34.3267 43.6267 33.98 43.8 33.82C43.9867 33.66 44.3533 33.58 44.9 33.58H52.2C52.3467 33.58 52.4467 33.6067 52.5 33.66C52.5667 33.7 52.6 33.7933 52.6 33.94V35.52C52.6 35.6667 52.5667 35.76 52.5 35.8C52.4467 35.84 52.3467 35.86 52.2 35.86H46.6C46.4667 35.86 46.3867 35.8867 46.36 35.94C46.3333 35.9933 46.32 36.06 46.32 36.14V38.68C47.3067 38.68 48.3133 38.68 49.34 38.68C50.38 38.6667 51.2933 38.6333 52.08 38.58C52.1867 38.58 52.2867 38.5933 52.38 38.62C52.4733 38.6467 52.52 38.7267 52.52 38.86V40.34C52.52 40.6467 52.4133 40.8 52.2 40.8ZM60.26 41.56H57.78V50.88C57.78 51.04 57.7533 51.14 57.7 51.18C57.66 51.2333 57.5667 51.26 57.42 51.26H55.4C55.2533 51.26 55.1467 51.2333 55.08 51.18C55.0267 51.14 55 51.04 55 50.88V32.46C55 32.3133 55.0267 32.2133 55.08 32.16C55.1467 32.1067 55.2533 32.08 55.4 32.08H57.42C57.5667 32.08 57.66 32.1067 57.7 32.16C57.7533 32.2133 57.78 32.3133 57.78 32.46V39.28H60.26C60.38 39.28 60.4733 39.3 60.54 39.34C60.62 39.3667 60.66 39.4733 60.66 39.66V41.18C60.66 41.34 60.62 41.4467 60.54 41.5C60.4733 41.54 60.38 41.56 60.26 41.56ZM76.4886 51.18H65.3286C65.0353 51.18 64.7953 51.1533 64.6086 51.1C64.4353 51.06 64.2953 50.9867 64.1886 50.88C64.0953 50.7867 64.0286 50.6533 63.9886 50.48C63.9619 50.32 63.9486 50.12 63.9486 49.88V47.32C63.9486 47.0667 63.9619 46.86 63.9886 46.7C64.0286 46.54 64.0953 46.4133 64.1886 46.32C64.2953 46.2133 64.4353 46.14 64.6086 46.1C64.7819 46.06 65.0153 46.04 65.3086 46.04H73.4686C73.5886 46.04 73.6486 45.9667 73.6486 45.82V45.38C73.6486 45.22 73.5819 45.14 73.4486 45.14H64.3086C64.1619 45.14 64.0553 45.1133 63.9886 45.06C63.9353 45.0067 63.9086 44.9 63.9086 44.74V43.38C63.9086 43.1267 64.0419 43 64.3086 43H74.9486C75.5486 43 75.9353 43.1 76.1086 43.3C76.2819 43.4867 76.3686 43.82 76.3686 44.3V46.8C76.3686 47.0667 76.3486 47.2867 76.3086 47.46C76.2819 47.62 76.2219 47.7467 76.1286 47.84C76.0353 47.9333 75.8953 47.9933 75.7086 48.02C75.5219 48.06 75.2819 48.08 74.9886 48.08H66.8886C66.7553 48.08 66.6886 48.1467 66.6886 48.28V48.82C66.6886 48.9667 66.7619 49.04 66.9086 49.04H76.4686C76.6153 49.04 76.7219 49.06 76.7886 49.1C76.8553 49.14 76.8886 49.2467 76.8886 49.42V50.78C76.8886 51.0467 76.7553 51.18 76.4886 51.18ZM76.5886 38.62H63.7486C63.4553 38.62 63.3086 38.4667 63.3086 38.16V36.8C63.3086 36.5467 63.4553 36.42 63.7486 36.42H65.8086V34.46H64.1086C63.8019 34.46 63.6486 34.3133 63.6486 34.02V32.68C63.6486 32.5333 63.6886 32.4267 63.7686 32.36C63.8619 32.2933 63.9753 32.26 64.1086 32.26H76.2486C76.5286 32.26 76.6686 32.4 76.6686 32.68V34.04C76.6686 34.32 76.5286 34.46 76.2486 34.46H74.5286V36.42H76.5886C76.8819 36.42 77.0286 36.5467 77.0286 36.8V38.18C77.0286 38.4733 76.8819 38.62 76.5886 38.62ZM78.7486 41.86H61.5886C61.4019 41.86 61.2886 41.8267 61.2486 41.76C61.2086 41.6933 61.1886 41.5867 61.1886 41.44V40.08C61.1886 39.9333 61.2153 39.8267 61.2686 39.76C61.3219 39.6933 61.4286 39.66 61.5886 39.66H78.7486C78.8686 39.66 78.9686 39.6933 79.0486 39.76C79.1286 39.8133 79.1686 39.92 79.1686 40.08V41.44C79.1686 41.72 79.0286 41.86 78.7486 41.86ZM68.5486 36.42H71.7886V34.46H68.5486V36.42Z" fill="#DC7CB5"/>
</svg>